<svg width="32" height="32" viewBox="0 0 32 32" fill="none" xmlns="http://www.w3.org/2000/svg">
<g clip-path="url(#clip0_386_7819)">
<path d="M19.9558 5.05132C24.7329 1.82846 27.4434 1.71433 28.9062 3.20005C31.192 5.48576 27.7958 12.2513 20.0243 20.1142C12.2529 27.977 5.59579 31.0857 3.31007 28.8C1.80836 27.2983 1.6929 24.6513 5.14661 19.7667" stroke="#3779DD" stroke-width="3" stroke-linecap="round" stroke-linejoin="round"/>
<path d="M12.441 27.0234C13.5928 27.3963 14.796 27.586 16.0067 27.5857C17.8247 27.5869 19.6168 27.1544 21.2341 26.324C22.8514 25.4937 24.2473 24.2895 25.3059 22.8114C26.3644 21.3333 27.055 19.624 27.3204 17.8255C27.5858 16.027 27.4183 14.1911 26.8319 12.4702M6.86385 23.0142C5.21324 20.8134 4.41187 18.0911 4.60689 15.3469C4.80191 12.6028 5.98022 10.0212 7.92549 8.07588C9.87076 6.13061 12.4524 4.9523 15.1966 4.75728C17.9407 4.56226 20.663 5.36363 22.8639 7.01424" stroke="#3779DD" stroke-width="3" stroke-linecap="round" stroke-linejoin="round"/>
</g>
<defs>
<clipPath id="clip0_386_7819">
<rect width="32" height="32" fill="white"/>
</clipPath>
</defs>
</svg>
