<svg width="20" height="20" viewBox="0 0 20 20" fill="none" xmlns="http://www.w3.org/2000/svg">
<path d="M14.1654 7.49935V5.83268C14.1654 4.72761 13.7264 3.66781 12.945 2.8864C12.1636 2.105 11.1038 1.66602 9.9987 1.66602C8.89363 1.66602 7.83382 2.105 7.05242 2.8864C6.27102 3.66781 5.83203 4.72761 5.83203 5.83268V7.49935C5.16899 7.49935 4.53311 7.76274 4.06426 8.23158C3.59542 8.70042 3.33203 9.33631 3.33203 9.99935V15.8327C3.33203 16.4957 3.59542 17.1316 4.06426 17.6004C4.53311 18.0693 5.16899 18.3327 5.83203 18.3327H14.1654C14.8284 18.3327 15.4643 18.0693 15.9331 17.6004C16.402 17.1316 16.6654 16.4957 16.6654 15.8327V9.99935C16.6654 9.33631 16.402 8.70042 15.9331 8.23158C15.4643 7.76274 14.8284 7.49935 14.1654 7.49935ZM7.4987 5.83268C7.4987 5.16964 7.76209 4.53376 8.23093 4.06492C8.69977 3.59607 9.33566 3.33268 9.9987 3.33268C10.6617 3.33268 11.2976 3.59607 11.7665 4.06492C12.2353 4.53376 12.4987 5.16964 12.4987 5.83268V7.49935H7.4987V5.83268ZM14.9987 15.8327C14.9987 16.0537 14.9109 16.2657 14.7546 16.4219C14.5983 16.5782 14.3864 16.666 14.1654 16.666H5.83203C5.61102 16.666 5.39906 16.5782 5.24278 16.4219C5.0865 16.2657 4.9987 16.0537 4.9987 15.8327V9.99935C4.9987 9.77833 5.0865 9.56637 5.24278 9.41009C5.39906 9.25381 5.61102 9.16602 5.83203 9.16602H14.1654C14.3864 9.16602 14.5983 9.25381 14.7546 9.41009C14.9109 9.56637 14.9987 9.77833 14.9987 9.99935V15.8327Z" fill="#BABABA"/>
</svg>
