<svg width="87" height="29" viewBox="0 0 87 29" fill="none" xmlns="http://www.w3.org/2000/svg">
<g clip-path="url(#clip0_516_7453)">
<path d="M12.9723 7.65707C15.9581 5.64279 17.6521 5.57146 18.5664 6.50003C19.995 7.9286 17.8723 12.1571 13.0152 17.0714C8.15806 21.9856 3.99737 23.9286 2.5688 22.5C1.63022 21.5614 1.55806 19.9071 3.71663 16.8542" stroke="#3779DD" stroke-width="2" stroke-linecap="round" stroke-linejoin="round"/>
<path d="M8.27367 21.3894C8.99356 21.6224 9.74557 21.741 10.5022 21.7408C11.6385 21.7416 12.7585 21.4712 13.7694 20.9523C14.7802 20.4333 15.6526 19.6807 16.3142 18.7569C16.9758 17.8331 17.4074 16.7648 17.5733 15.6407C17.7392 14.5166 17.6345 13.3692 17.268 12.2937M4.78796 18.8837C3.75632 17.5081 3.25547 15.8067 3.37735 14.0916C3.49924 12.3765 4.23568 10.763 5.45148 9.54718C6.66727 8.33139 8.28082 7.59494 9.99589 7.47306C11.711 7.35117 13.4124 7.85202 14.788 8.88366" stroke="#3779DD" stroke-width="2" stroke-linecap="round" stroke-linejoin="round"/>
</g>
<path d="M26.3438 19.4141C26.3438 16.5547 28.7109 15.7109 31.0781 15.5703C31.957 15.5117 33.7852 15.4062 34.3359 15.3828V14.375C34.3359 13.1094 33.5156 12.3828 32.0391 12.3828C30.7031 12.3828 29.8828 12.9922 29.6484 13.9062H26.7656C26.9766 11.75 28.9219 10.1094 32.1094 10.1094C34.5234 10.1094 37.3125 11.0938 37.3125 14.4922V23H34.4531V21.2422H34.3594C33.7969 22.3203 32.6016 23.2578 30.6094 23.2578C28.1719 23.2578 26.3438 21.9219 26.3438 19.4141ZM29.2266 19.3906C29.2266 20.4922 30.1172 21.0547 31.3828 21.0547C33.1875 21.0547 34.3594 19.8594 34.3594 18.4297V17.375L31.5469 17.5625C30.1172 17.6797 29.2266 18.2656 29.2266 19.3906ZM43.125 6.03125V23H40.125V6.03125H43.125ZM51.5391 23.2578C47.8359 23.2578 45.4453 20.6328 45.4453 16.6953C45.4453 12.7344 47.8359 10.1094 51.5391 10.1094C55.2656 10.1094 57.6328 12.7344 57.6328 16.6953C57.6328 20.6328 55.2656 23.2578 51.5391 23.2578ZM51.5625 20.8672C53.6016 20.8672 54.6094 19.0156 54.6094 16.6719C54.6094 14.3516 53.6016 12.4766 51.5625 12.4766C49.4766 12.4766 48.4688 14.3516 48.4688 16.6719C48.4688 19.0156 49.4766 20.8672 51.5625 20.8672ZM62.9531 15.5469V23H59.9531V10.2734H62.8125V12.4297H62.9766C63.5625 11 64.8516 10.1094 66.75 10.1094C69.3984 10.1094 71.1328 11.8438 71.1094 14.8906V23H68.1328V15.3594C68.1328 13.6484 67.2188 12.6406 65.6484 12.6406C64.0547 12.6406 62.9531 13.6953 62.9531 15.5469ZM79.6172 23.2578C75.7734 23.2578 73.4297 20.7031 73.4297 16.7188C73.4297 12.7812 75.8203 10.1094 79.4531 10.1094C82.5703 10.1094 85.2656 12.0547 85.2656 16.5312V17.4688H76.3828C76.418 19.6367 77.6953 20.9141 79.6406 20.9141C80.9531 20.9141 81.8438 20.3516 82.2188 19.6016H85.1484C84.6094 21.8047 82.5703 23.2578 79.6172 23.2578ZM76.4062 15.4297H82.4062C82.3828 13.6953 81.2344 12.4297 79.5 12.4297C77.6953 12.4297 76.5 13.8008 76.4062 15.4297Z" fill="black"/>
<defs>
<clipPath id="clip0_516_7453">
<rect width="20" height="20" fill="white" transform="translate(0.5 4.5)"/>
</clipPath>
</defs>
</svg>
