<svg width="25" height="25" viewBox="0 0 25 25" fill="none" xmlns="http://www.w3.org/2000/svg">
<g clip-path="url(#clip0_516_7465)">
<rect x="0.5" y="0.5" width="24" height="24" rx="12" fill="#D1D1D1"/>
<g clip-path="url(#clip1_516_7465)">
<path d="M12.5 14.5C14.71 14.5 16.5 12.71 16.5 10.5C16.5 8.29 14.71 6.5 12.5 6.5C10.29 6.5 8.5 8.29 8.5 10.5C8.5 12.71 10.29 14.5 12.5 14.5ZM12.5 16.5C9.83 16.5 4.5 17.84 4.5 20.5V21.5C4.5 22.05 4.95 22.5 5.5 22.5L12.5 29.5L19.5 22.5C20.05 22.5 20.5 22.05 20.5 21.5V20.5C20.5 17.84 15.17 16.5 12.5 16.5Z" fill="#F2F2F2"/>
</g>
</g>
<defs>
<clipPath id="clip0_516_7465">
<rect x="0.5" y="0.5" width="24" height="24" rx="12" fill="white"/>
</clipPath>
<clipPath id="clip1_516_7465">
<rect width="24" height="24" fill="white" transform="translate(0.5 2.5)"/>
</clipPath>
</defs>
</svg>
